<svg xmlns="http://www.w3.org/2000/svg" xmlns:xlink="http://www.w3.org/1999/xlink" width="72.772" height="72.772" viewBox="0 0 72.772 72.772">
  <defs>
    <clipPath id="clip-path">
      <circle id="Elipse_50" data-name="Elipse 50" cx="36.386" cy="36.386" r="36.386" transform="translate(1.6 1.43)" fill="none"/>
    </clipPath>
  </defs>
  <g id="Bayer_Branco_-_svg-03" data-name="Bayer Branco - svg-03" transform="translate(-1.6 -1.43)" clip-path="url(#clip-path)">
    <g id="Layer_1" data-name="Layer 1" transform="translate(0.203 0.198)">
      <g id="bKdCXk.tif" transform="translate(0 0)">
        <path id="Caminho_469" data-name="Caminho 469" d="M75.527,41.675a7.733,7.733,0,0,0-.335,2.131A37.265,37.265,0,0,1,49.829,74.529C36.039,79,23.307,76.3,12.369,66.668A36.274,36.274,0,0,1,.418,44.424,31.892,31.892,0,0,1,0,38.152a.333.333,0,0,1,.318.163c.309,1.048.361,2.139.576,3.213A36.944,36.944,0,0,0,8.976,58.282a37.193,37.193,0,0,0,17.51,11.676l.541.172a3.926,3.926,0,0,0,.765.232h.172c.249.077.507.137.756.2h.18c.309.095.636.163.954.241a4.938,4.938,0,0,0,.619.129,3.333,3.333,0,0,0,.713.112h.189a2.01,2.01,0,0,0,.644.077A33.841,33.841,0,0,0,38.4,71.6,33.073,33.073,0,0,0,70.561,41.649,32.245,32.245,0,0,0,69.4,29.706a32.906,32.906,0,0,0-6.925-12.638,33.353,33.353,0,0,0-9.82-7.647,25.551,25.551,0,0,0-3.514-1.538,1.607,1.607,0,0,1-.859-.438c0-.18.1-.223.232-.266a1.409,1.409,0,0,1,.679.1A38.1,38.1,0,0,1,71.944,26.991a36.438,36.438,0,0,1,3.437,11.633c0,.172,0,.335,0,.507a1.632,1.632,0,0,0,0,.541c.06.206-.052.43.077.619Z" transform="translate(0.025 -1.007)" fill="#fff"/>
        <path id="Caminho_470" data-name="Caminho 470" d="M75.307,38.147A37.8,37.8,0,0,0,48.982,6.366a1.943,1.943,0,0,1-.361-.077c-.43,0-.859-.172-1.272-.172a.387.387,0,0,1-.172,0,1.452,1.452,0,0,0-.9-.223.438.438,0,0,1-.18-.052,5.6,5.6,0,0,0-1.8-.387,34.462,34.462,0,0,0-7.629-.576A32.913,32.913,0,0,0,26.325,68.638a1.632,1.632,0,0,1,.859.473c0,.112,0,.206-.18.137a27.287,27.287,0,0,1-5.722-2.182A37.533,37.533,0,0,1,.937,41.343a40.716,40.716,0,0,1-.7-4.072,3.162,3.162,0,0,1-.163-.79,6.341,6.341,0,0,1,0-.808A36.747,36.747,0,0,1,8.807,13.566,36.7,36.7,0,0,1,31.343.558a37.735,37.735,0,0,1,42.821,27.09,38.224,38.224,0,0,1,1.254,7.037c0,.112,0,.258.12.318v1.254a1.718,1.718,0,0,0,0,1.005V38.4C75.3,38.473,75.4,38.224,75.307,38.147Z" transform="translate(0.013 0.004)" fill="#fff"/>
        <path id="Caminho_471" data-name="Caminho 471" d="M87.887,43.205a.962.962,0,0,1,0-1.005Z" transform="translate(-12.335 -5.94)" fill="#fff"/>
        <path id="Caminho_472" data-name="Caminho 472" d="M87.886,45.592c-.232-.163-.112-.4-.137-.619s0-.163.137-.137Z" transform="translate(-12.335 -6.308)" fill="#fff"/>
        <path id="Caminho_473" data-name="Caminho 473" d="M87.87,44.778l-.137.137a.722.722,0,0,1-.095-.516l.232.249Z" transform="translate(-12.318 -6.25)" fill="#fff"/>
        <path id="Caminho_474" data-name="Caminho 474" d="M.137,42.5a1.306,1.306,0,0,1,.095.747L0,43.12v-.627C.06,42.433.1,42.433.137,42.5Z" transform="translate(0.022 -5.975)" fill="#fff"/>
        <path id="Caminho_475" data-name="Caminho 475" d="M.134,42.369H0a1.864,1.864,0,0,1,.069-.859Z" transform="translate(0.025 -5.843)" fill="#fff"/>
        <path id="Caminho_476" data-name="Caminho 476" d="M56.091,7.385A2.947,2.947,0,0,1,55,6.99c.507-.2.859.137,1.349.266C56.272,7.282,56.16,7.274,56.091,7.385Z" transform="translate(-7.724 -0.973)" fill="#fff"/>
        <path id="Caminho_477" data-name="Caminho 477" d="M31.616,80.46c.241.086.576,0,.653.361a1.555,1.555,0,0,1-.8-.241Z" transform="translate(-4.41 -11.328)" fill="#fff"/>
        <path id="Caminho_478" data-name="Caminho 478" d="M32.48,80.884c.326-.163.593-.137.756.223a1.925,1.925,0,0,1-.756-.223Z" transform="translate(-4.552 -11.374)" fill="#fff"/>
        <path id="Caminho_479" data-name="Caminho 479" d="M33.55,81.176c.369-.232.67.095,1.014.129.043,0,.052,0,.043.069a.06.06,0,0,1-.052,0,3.119,3.119,0,0,1-1.005-.2Z" transform="translate(-4.703 -11.417)" fill="#fff"/>
        <path id="Caminho_480" data-name="Caminho 480" d="M35.452,81.49c.258.095.567,0,.79.241a1.469,1.469,0,0,1-.79-.129.052.052,0,0,1-.043-.077C35.426,81.5,35.435,81.49,35.452,81.49Z" transform="translate(-4.964 -11.473)" fill="#fff"/>
        <path id="Caminho_481" data-name="Caminho 481" d="M35.356,81.469v.112a1.168,1.168,0,0,1-.636-.137.421.421,0,0,0,0-.1Z" transform="translate(-4.868 -11.452)" fill="#fff"/>
        <path id="Caminho_482" data-name="Caminho 482" d="M36.45,81.767c.232,0,.481-.086.679.12A1.04,1.04,0,0,1,36.45,81.767Z" transform="translate(-5.111 -11.51)" fill="#fff"/>
        <path id="Caminho_483" data-name="Caminho 483" d="M53.485,6.638a9.881,9.881,0,0,1-1.985-.5,3.583,3.583,0,0,1,1.985.5Z" transform="translate(-7.231 -0.861)" fill="#fff"/>
        <path id="Caminho_484" data-name="Caminho 484" d="M54.842,6.946A2.225,2.225,0,0,1,53.88,6.7a.747.747,0,0,1,.962.249Z" transform="translate(-7.566 -0.928)" fill="#fff"/>
        <path id="Caminho_485" data-name="Caminho 485" d="M53.19,42.9V38.184c0-.4.1-.524.524-.524h8.428c.421,0,.55.12.516.524-.052.558.232,1.3-.112,1.632s-1.074.095-1.632.1H56.257c-.421,0-.576.069-.567.533,0,1.22,0,1.22,1.2,1.22h4.975c.369,0,.593,0,.541.5s.223,1.289-.112,1.641-1.074.095-1.632.1H56.2c-.369,0-.5.077-.507.481,0,1.5,0,1.5,1.478,1.5h4.975c.421,0,.55.12.516.533a7.646,7.646,0,0,0,0,1.254c0,.412-.129.473-.5.473H53.731c-.464,0-.541-.155-.541-.576C53.207,46.011,53.19,44.456,53.19,42.9Z" transform="translate(-7.469 -5.301)" fill="#fff"/>
        <path id="Caminho_486" data-name="Caminho 486" d="M38.44,57.621V52.956c0-.421.129-.515.533-.515H47.4c.438,0,.558.129.516.533-.06.558.241,1.3-.129,1.624s-1.04.095-1.581.1H41.43c-.378,0-.507.077-.507.481,0,1.254,0,1.254,1.237,1.254h4.975c.4,0,.541.1.541.524,0,1.718,0,1.718-1.667,1.718H41.481c-.378,0-.558.052-.558.5,0,1.495,0,1.495,1.495,1.495h4.966c.4,0,.576.095.533.516-.052.558.232,1.28-.112,1.641s-1.04.095-1.581.095H39.05c-.516,0-.619-.155-.61-.627C38.457,60.722,38.44,59.167,38.44,57.621Z" transform="translate(-5.392 -7.382)" fill="#fff"/>
        <path id="Caminho_487" data-name="Caminho 487" d="M49.42,37.667c-1.718,2.191-3.316,4.3-4.949,6.349a1.5,1.5,0,0,0-.352,1.022q0,1.289,0,2.577c0,.369-.052.541-.473.507a14.779,14.779,0,0,0-1.632,0c-.352,0-.421-.12-.412-.43V44.987a1.383,1.383,0,0,0-.309-.919c-1.65-2.088-3.273-4.184-4.992-6.392h2.878c.215,0,.284.232.387.378,1,1.323,1.993,2.646,2.964,3.978.241.335.361.361.619,0,.971-1.34,1.976-2.655,2.956-3.987a.859.859,0,0,1,.773-.4C47.7,37.684,48.492,37.667,49.42,37.667Z" transform="translate(-5.09 -5.299)" fill="#fff"/>
        <path id="Caminho_488" data-name="Caminho 488" d="M18.7,43.015a.49.49,0,0,1-.06-.644,3.033,3.033,0,0,0-2.681-4.691H9.42c-.387,0-.5.1-.49.49v9.485c0,.4.1.49.49.49h6.719a3.17,3.17,0,0,0,2.578-5.155ZM12.684,39.93h2.947a.867.867,0,1,1,.009,1.718H11.808c-.284,0-.387-.069-.4-.387-.052-1.332-.06-1.332,1.306-1.332Zm3.084,5.954H11.877c-.326,0-.464-.052-.473-.43,0-1.547-.052-1.547,1.486-1.547h2.887a.962.962,0,0,1,1.083.954c.034.627-.361,1.005-1.065,1.022Z" transform="translate(-1.236 -5.303)" fill="#fff"/>
        <path id="Caminho_489" data-name="Caminho 489" d="M48.189,13.731c-.155-.206-.215-.318-.06-.584a3.024,3.024,0,0,0-2.7-4.708h-6.3c-.524,0-.73.095-.713.679.052,1.512,0,3.024,0,4.536v4.717c0,.266,0,.5.369.5h7.045a2.947,2.947,0,0,0,2.732-1.821A3.05,3.05,0,0,0,48.189,13.731Zm-6.006-3.093h2.9c.679,0,1.083.344,1.083.859s-.412.859-1.083.859H41.367c-.369,0-.447-.112-.447-.464C40.9,10.638,40.886,10.638,42.183,10.638Zm3.265,6.014h-4.2c-.249,0-.344-.095-.318-.335v-.06c-.1-1.6-.1-1.6,1.486-1.6h2.947a.989.989,0,0,1,.086,1.976Z" transform="translate(-5.389 -1.185)" fill="#fff"/>
        <path id="Caminho_490" data-name="Caminho 490" d="M49.372,77.427c-.79-1.074-1.589-2.157-2.406-3.222-.241-.318-.335-.464.1-.722a3.213,3.213,0,0,0-1.718-6.014H38.941c-.4,0-.541.095-.541.524v9.451c0,.361.06.55.473.515a13.749,13.749,0,0,1,1.572,0c.369,0,.455-.12.447-.464V74.412c0-.352.095-.473.455-.455h1.942a.8.8,0,0,1,.773.4c.79,1.083,1.607,2.148,2.414,3.222.129.172.232.387.524.387h2.62C49.647,77.685,49.483,77.573,49.372,77.427Zm-4.39-5.713H41.313c-.266,0-.344-.095-.361-.361-.12-1.632-.129-1.632,1.486-1.632h2.578c.73,0,1.186.421,1.168,1.022s-.49.962-1.2.971Z" transform="translate(-5.386 -9.498)" fill="#fff"/>
        <path id="Caminho_491" data-name="Caminho 491" d="M75.339,44.045c1.821-.859,2.578-2.217,2.208-3.883s-1.718-2.492-3.54-2.492H68.853c-.6,0-.859.1-.8.765.043,2.578,0,5.155,0,7.733,0,.636-.292,1.521.12,1.856s1.246.077,1.89.112c.344,0,.473-.086.455-.447V45.36c0-1.194,0-1.168,1.168-1.211a1.186,1.186,0,0,1,1.143.567c.73,1.04,1.521,2.053,2.294,3.067.112.146.172.344.412.344h2.818Zm-1.2-2.139H70.88c-.232,0-.361-.077-.344-.326a.077.077,0,0,0,0-.06c-.12-1.615-.12-1.615,1.486-1.615h2.062a.988.988,0,0,1,.052,1.976Z" transform="translate(-9.548 -5.302)" fill="#fff"/>
        <path id="Caminho_492" data-name="Caminho 492" d="M48.961,32.675c-1.357-2.715-2.792-5.387-4.029-8.154-.576-1.306-1.289-1.882-2.706-1.65a.945.945,0,0,0-.859.55c-1.547,3.136-3.11,6.255-4.665,9.382-.077.155-.241.292-.155.533a6.2,6.2,0,0,1,1.057,0,1.615,1.615,0,0,0,2.122-1.306c.086-.378.361-.438.713-.43,1.254,0,2.517.077,3.772,0s1.942.12,2.217,1.357a.447.447,0,0,0,.481.4h2.354A2.005,2.005,0,0,0,48.961,32.675Zm-7.9-3.342,1.89-3.78,1.821,3.755Z" transform="translate(-5.122 -3.211)" fill="#fff"/>
        <path id="Caminho_493" data-name="Caminho 493" d="M35.292,47.489,31.22,39.362c-.284-.558-.438-1.332-.859-1.615s-1.22-.052-1.847-.095a.679.679,0,0,0-.756.473c-1.564,3.162-3.153,6.315-4.734,9.451-.069.146-.2.275-.155.507a6.1,6.1,0,0,1,1.048,0,1.624,1.624,0,0,0,2.157-1.323c.086-.369.361-.438.713-.43,1.263,0,2.526.086,3.772,0s1.873.206,2.182,1.383a.438.438,0,0,0,.473.4h2.363Zm-4.76-3.342H27.774c-.172,0-.5.1-.3-.3.55-1.117,1.091-2.242,1.718-3.5.584,1.211,1.1,2.311,1.641,3.385C30.988,44.087,30.885,44.156,30.532,44.147Z" transform="translate(-3.198 -5.293)" fill="#fff"/>
      </g>
    </g>
  </g>
</svg>
