<svg width="74" height="74" viewBox="0 0 74 74" fill="none" xmlns="http://www.w3.org/2000/svg">
<path d="M34.7576 11.0018H39.0422C39.5288 11.0018 39.9191 10.6114 39.9191 10.1249C39.9191 9.63832 39.5288 9.24797 39.0422 9.24797H34.7576V10.9999V11.0018ZM34.7576 15.0921H39.1384C39.723 15.0921 40.1115 14.7018 40.1115 14.119C40.1115 13.5363 39.7212 13.1459 39.1384 13.1459H34.7576V15.094V15.0921ZM41.6711 11.9767C42.2557 12.5613 42.6442 13.3402 42.6442 14.2171C42.6442 15.969 41.2807 17.3324 39.5288 17.3324H32.4211V7.10938H39.4307C41.0865 7.10938 42.4499 8.47282 42.4499 10.1286C42.3519 10.8094 42.0596 11.492 41.6711 11.9786V11.9767ZM43.3268 29.5036H40.698L39.9191 27.7516H34.1749L33.396 29.5036H30.7672L35.8306 19.2805H38.1672L43.3268 29.5036ZM36.998 21.9093L35.246 25.6093H38.7518L36.9998 21.9093H36.998ZM40.5037 31.7439H43.4249L38.2652 38.365V41.967H35.8306V38.365L30.671 31.7439H33.5921L37.0979 36.417L40.5056 31.7439H40.5037ZM54.0383 31.7439V33.9843H47.2229V35.7362H53.844V37.9765H47.2229V39.9246H54.0383V42.1649H44.7883V31.7458H54.0383V31.7439ZM61.5363 38.0727H59.6863V41.967H57.2517V31.7439H63.4825C65.2345 31.7439 66.5979 33.2036 66.5979 34.9574C66.5979 36.417 65.6248 37.5862 64.3576 37.9765L67.3767 41.9688H64.4556L61.5345 38.0746L61.5363 38.0727ZM63.2883 33.8862H59.7825V35.8342H63.2883C63.8729 35.8342 64.2614 35.3477 64.2614 34.8612C64.2614 34.3746 63.7748 33.8881 63.2883 33.8881V33.8862ZM31.7403 41.967H29.1114L28.3326 40.215H22.5884L21.8095 41.967H19.1807L24.3403 31.7439H26.6768L31.7403 41.967ZM25.4114 34.3728L23.6595 38.0727H27.2614L25.4114 34.3728ZM9.93069 35.6382H14.2153C14.7018 35.6382 15.0922 35.2478 15.0922 34.7613C15.0922 34.2747 14.7018 33.8844 14.2153 33.8844H9.93069V35.6363V35.6382ZM9.93069 39.7285H14.3115C14.8961 39.7285 15.2846 39.3381 15.2846 38.7554C15.2846 38.1726 14.8942 37.7823 14.3115 37.7823H9.93069V39.7303V39.7285ZM16.8441 36.6131C17.4287 37.1977 17.8172 37.9765 17.8172 38.8534C17.8172 40.6054 16.4538 41.9688 14.7018 41.9688H7.49609V31.7458H14.5057C16.1615 31.7458 17.5249 33.1092 17.5249 34.765C17.5249 35.4458 17.2326 36.1284 16.8441 36.6149V36.6131ZM41.6729 44.1111V46.3515H34.8575V48.1034H41.4787V50.3438H34.8575V52.2918H41.6729V54.5322H32.4229V44.113H41.6729V44.1111ZM39.921 59.9822C39.921 59.3976 39.5306 59.0091 38.9479 59.0091H34.7613V60.9572H38.9479C39.5325 60.9572 39.921 60.5668 39.921 59.9841V59.9822ZM32.3267 67.0899V56.8669H39.1421C40.8941 56.8669 42.2575 58.3265 42.2575 60.0803C42.2575 61.4437 41.4787 62.5149 40.3095 63.0014L43.4249 67.0918H40.5037L37.5826 63.1975H34.7595V67.0918H32.3249L32.3267 67.0899Z" fill="#10384F"/>
<path d="M73.9014 34.6634C72.734 15.3846 56.6687 0 36.9995 0C17.3304 0 1.265 15.3846 0.0976562 34.6634C0.0976562 35.4422 0.195706 36.2211 0.291906 36.9999C1.07075 43.4268 3.50535 49.3653 7.20534 54.3307C13.9245 63.4826 24.7322 69.4229 36.9995 69.4229C19.863 69.4229 5.84189 56.0826 4.67269 39.3365C4.57465 38.5576 4.57465 37.7788 4.57465 36.9999C4.57465 36.2211 4.57465 35.4422 4.67269 34.6634C5.84189 17.9154 19.863 4.57689 36.9995 4.57689C49.2687 4.57689 60.0764 10.5172 66.7937 19.6692C70.4937 24.6345 72.9283 30.5749 73.7071 36.9999C73.8052 37.7788 73.9014 38.5576 73.9014 39.2403C73.9014 38.4614 73.9994 37.6826 73.9994 36.9037C73.9994 36.2229 73.9994 35.4441 73.9014 34.6634Z" fill="#10384F"/>
<path d="M0.0980498 39.3367C1.26725 58.6155 17.3326 74.0001 36.9999 74.0001C56.6672 74.0001 72.7344 58.6155 73.9018 39.3367C73.9018 38.5579 73.8037 37.779 73.7075 37.0002C72.9287 30.5733 70.4941 24.6348 66.7941 19.6694C60.0749 10.5175 49.2672 4.57715 36.9999 4.57715C54.1364 4.57715 68.1575 17.9175 69.3267 34.6636C69.4248 35.4425 69.4248 36.2213 69.4248 37.0002C69.4248 37.779 69.4248 38.5579 69.3267 39.3367C68.1575 56.1809 54.1364 69.4232 36.9999 69.4232C24.7307 69.4232 13.9231 63.4829 7.20573 54.3309C3.50574 49.3655 1.07115 43.4271 0.292299 37.0002C0.19425 36.2213 0.0980498 35.4425 0.0980498 34.7598C0.0980498 35.5405 0 36.3194 0 37.0982C0 37.779 0 38.5579 0.0980498 39.3386" fill="#10384F"/>
</svg>
